# xmcd
#
# Track frame offsets:
#	182
#	18055
#	36120
#	50325
#	62182
#	77067
#	93295
#	105107
#	119465
#	133165
#	144112
#	156240
#	174622
#	192222
#	206102
#	225935
#	238977
#	250810
#	262022
#	278345
#	290347
#	309675
#	322110
#
# Disc length: 4511 seconds
#
# Revision: 5
# Processed by: cddbd v1.5.2PL0 Copyright (c) Steve Scherf et al.
# Submitted via: EZCDAudioConverter 3.1.7.1
#
DISCID=3e119d17
DTITLE=Hank Williams, Jr. - The Bocephus Box
DYEAR=2000
DGENRE=Country
TTITLE0=A Country Boy Can Survive (Y2K Version) (Chad Brock With Hank Williams
TTITLE0=Jr. and George Jones)
TTITLE1=Family Tradition
TTITLE2=To Love Somebody
TTITLE3=Old Flame New Fire
TTITLE4=Only Daddy That'll Walk The Line
TTITLE5=I've Got Rights
TTITLE6=I Just Ain't Been Able
TTITLE7=Whiskey Bent And Hell Bound
TTITLE8=Outlaw Women
TTITLE9=(I Don't Have) Anymore Love Songs
TTITLE10=O.D.'d In Denver
TTITLE11=Come And Go Blues
TTITLE12=The Conversation
TTITLE13=Old Habits
TTITLE14=Kaw-Liga
TTITLE15=If You Don't Like Hank Williams
TTITLE16=Dixie On My Mind
TTITLE17=Texas Women
TTITLE18=Ramblin' Man
TTITLE19=Waitin' On The Tables To Turn
TTITLE20=A Country Boy Can Survive
TTITLE21=Born To Boogie
TTITLE22=Honky Tonk Women
EXTD=
EXTT0=
EXTT1=
EXTT2=
EXTT3=
EXTT4=
EXTT5=
EXTT6=
EXTT7=
EXTT8=
EXTT9=
EXTT10=
EXTT11=
EXTT12=
EXTT13=
EXTT14=
EXTT15=
EXTT16=
EXTT17=
EXTT18=
EXTT19=
EXTT20=
EXTT21=
EXTT22=
PLAYORDER=
